<svg width="99" height="69" viewBox="0 0 99 69" fill="none" xmlns="http://www.w3.org/2000/svg">
<path d="M52.688 37.896C53.9467 38.5147 54.576 39.1973 54.576 39.944C54.576 40.2853 54.416 40.7973 54.096 41.48L45.264 59.4C45.0293 59.8693 44.6667 60.2533 44.176 60.552C43.7067 60.8293 43.216 60.968 42.704 60.968H42.384C41.8507 60.968 41.3387 60.8293 40.848 60.552C40.3787 60.2533 40.0267 59.8693 39.792 59.4L30.96 41.48C30.64 40.7973 30.48 40.2853 30.48 39.944C30.48 39.1973 31.1093 38.5147 32.368 37.896C33.072 37.5333 33.6053 37.352 33.968 37.352C34.352 37.352 34.64 37.3947 34.832 37.48C35.024 37.5653 35.2053 37.7147 35.376 37.928C35.568 38.184 35.7387 38.472 35.888 38.792C36.0587 39.0907 36.4747 39.976 37.136 41.448C37.7973 42.8987 38.5013 44.4453 39.248 46.088C40.016 47.7307 40.7307 49.288 41.392 50.76C42.0747 52.2107 42.4587 53.0213 42.544 53.192L48.944 39.176C49.1147 38.7707 49.264 38.4507 49.392 38.216C49.776 37.64 50.2453 37.352 50.8 37.352C51.3547 37.352 51.984 37.5333 52.688 37.896ZM73.0465 48.424C74.3052 49.9173 74.9345 51.592 74.9345 53.448C74.8918 55.5813 74.1558 57.3733 72.7265 58.824C71.3185 60.2533 69.6012 60.968 67.5745 60.968H59.1585C57.6652 60.968 56.7905 60.5627 56.5345 59.752C56.4065 59.3893 56.3425 58.8347 56.3425 58.088V40.328C56.3425 39.816 56.3532 39.4427 56.3745 39.208C56.4172 38.9733 56.5238 38.696 56.6945 38.376C56.9932 37.8 57.8252 37.512 59.1905 37.512H67.2545C69.2172 37.512 70.8598 38.1947 72.1825 39.56C73.5692 40.9467 74.2625 42.6107 74.2625 44.552C74.2625 45.96 73.8572 47.2507 73.0465 48.424ZM69.2705 53.128C69.2705 52.616 69.2065 52.2107 69.0785 51.912C68.9718 51.6133 68.7798 51.4 68.5025 51.272C68.0758 51.1013 67.4785 51.016 66.7105 51.016C65.9425 51.016 65.3665 50.8667 64.9825 50.568C64.5985 50.2693 64.4065 49.6613 64.4065 48.744C64.4065 47.8053 64.5985 47.1867 64.9825 46.888C65.3878 46.5893 66.0492 46.44 66.9665 46.44C67.8198 46.44 68.3318 46.216 68.5025 45.768C68.5665 45.5333 68.5985 45.1493 68.5985 44.616C68.5985 44.0827 68.4172 43.7093 68.0545 43.496C67.7132 43.2827 67.1905 43.176 66.4865 43.176H62.0065V55.304H67.2545C68.5985 55.304 69.2705 54.5787 69.2705 53.128Z" fill="#FF9900"/>
<path d="M92.166 38.536C92.3793 38.152 92.6887 37.896 93.094 37.768C93.4993 37.64 94.0007 37.576 94.598 37.576C95.2167 37.576 95.7073 37.6293 96.07 37.736C96.454 37.8427 96.7313 37.9707 96.902 38.12C97.094 38.2693 97.2327 38.4933 97.318 38.792C97.446 39.1333 97.51 39.6773 97.51 40.424V58.184C97.51 58.696 97.4887 59.0693 97.446 59.304C97.4247 59.5387 97.3287 59.816 97.158 60.136C96.8593 60.712 96.0273 61 94.662 61C93.83 61 93.254 60.936 92.934 60.808C92.614 60.68 92.3473 60.4773 92.134 60.2C87.334 53.8 84.1767 49.6187 82.662 47.656V58.184C82.662 58.696 82.6407 59.0693 82.598 59.304C82.5767 59.5387 82.4807 59.816 82.31 60.136C82.0113 60.712 81.1793 61 79.814 61C78.4913 61 77.6807 60.712 77.382 60.136C77.2113 59.816 77.1047 59.528 77.062 59.272C77.0407 59.016 77.03 58.6427 77.03 58.152V40.296C77.03 39.4853 77.126 38.8987 77.318 38.536C77.5313 38.152 77.8407 37.896 78.246 37.768C78.6513 37.64 79.174 37.576 79.814 37.576C80.454 37.576 80.9553 37.64 81.318 37.768C81.702 37.8747 81.9687 38.0027 82.118 38.152C82.2033 38.216 82.4487 38.4933 82.854 38.984C87.3553 45.1067 90.3633 49.1493 91.878 51.112V40.296C91.878 39.4853 91.974 38.8987 92.166 38.536Z" fill="#AFAFAF"/>
<path d="M1.01919 34.5866C1.54444 20.9239 12.7864 10.0089 26.5777 10.0089H34.1532C33.628 23.6716 22.386 34.5866 8.59477 34.5866H1.01919Z" fill="#FF9900" stroke="black" stroke-width="2"/>
<path d="M24.3853 40.8393C11.7253 35.6752 5.31079 21.3793 10.0252 8.41887L12.6148 1.29966C25.2749 6.46372 31.6894 20.7596 26.975 33.7201L24.3853 40.8393Z" fill="#AFAFAF" stroke="black" stroke-width="2"/>
</svg>
