<svg width="557" height="117" viewBox="0 0 557 117" fill="none" xmlns="http://www.w3.org/2000/svg">
<path d="M1.01052 62.7205C1.54261 37.4516 22.193 17.1311 47.5894 17.1311H61.9685C61.4364 42.4 40.7861 62.7205 15.3896 62.7205H1.01052Z" fill="#FF9900" stroke="black" stroke-width="2"/>
<path d="M44.1283 74.1616C20.5635 65.0236 8.52631 38.6709 17.2079 14.8043L22.1232 1.2915C45.688 10.4295 57.7252 36.7822 49.0437 60.6487L44.1283 74.1616Z" fill="#AFAFAF" stroke="black" stroke-width="2"/>
<path d="M83.9538 78.12C85.5271 78.8933 86.3138 79.7467 86.3138 80.68C86.3138 81.1067 86.1138 81.7467 85.7138 82.6L74.6738 105C74.3804 105.587 73.9271 106.067 73.3138 106.44C72.7271 106.787 72.1138 106.96 71.4738 106.96H71.0738C70.4071 106.96 69.7671 106.787 69.1538 106.44C68.5671 106.067 68.1271 105.587 67.8338 105L56.7938 82.6C56.3938 81.7467 56.1938 81.1067 56.1938 80.68C56.1938 79.7467 56.9804 78.8933 58.5538 78.12C59.4338 77.6667 60.1004 77.44 60.5538 77.44C61.0338 77.44 61.3938 77.4933 61.6338 77.6C61.8738 77.7067 62.1004 77.8933 62.3138 78.16C62.5538 78.48 62.7671 78.84 62.9538 79.24C63.1671 79.6133 63.6871 80.72 64.5138 82.56C65.3404 84.3733 66.2204 86.3067 67.1538 88.36C68.1138 90.4133 69.0071 92.36 69.8338 94.2C70.6871 96.0133 71.1671 97.0267 71.2738 97.24L79.2738 79.72C79.4871 79.2133 79.6738 78.8133 79.8338 78.52C80.3138 77.8 80.9004 77.44 81.5938 77.44C82.2871 77.44 83.0738 77.6667 83.9538 78.12ZM98.2175 88.16C98.3775 86.6667 99.4308 85.92 101.378 85.92C102.418 85.92 103.191 86 103.698 86.16C104.204 86.32 104.551 86.6 104.738 87C104.951 87.4 105.071 87.76 105.098 88.08C105.151 88.3733 105.178 88.8267 105.178 89.44V103.44C105.178 104.053 105.151 104.52 105.098 104.84C105.071 105.133 104.964 105.48 104.778 105.88C104.404 106.573 103.484 106.92 102.018 106.92C100.578 106.92 99.6042 106.747 99.0975 106.4C98.6175 106.027 98.3375 105.493 98.2575 104.8C97.2708 106.213 95.6175 106.92 93.2975 106.92C91.0042 106.92 88.8708 105.867 86.8975 103.76C84.9242 101.653 83.9375 99.2133 83.9375 96.44C83.9375 93.64 84.9242 91.2 86.8975 89.12C88.8975 87.0133 91.0842 85.96 93.4575 85.96C94.3642 85.96 95.1908 86.12 95.9375 86.44C96.6842 86.76 97.2042 87.0667 97.4975 87.36C97.7908 87.6267 98.0308 87.8933 98.2175 88.16ZM90.9375 96.48C90.9375 97.36 91.2842 98.16 91.9775 98.88C92.6708 99.5733 93.5108 99.92 94.4975 99.92C95.4842 99.92 96.2975 99.56 96.9375 98.84C97.6042 98.12 97.9375 97.3333 97.9375 96.48C97.9375 95.6 97.6175 94.7867 96.9775 94.04C96.3642 93.2933 95.5242 92.92 94.4575 92.92C93.4175 92.92 92.5642 93.2933 91.8975 94.04C91.2575 94.7867 90.9375 95.6 90.9375 96.48ZM108.366 112.72V89.36C108.366 88.7467 108.379 88.2933 108.406 88C108.459 87.7067 108.579 87.3733 108.766 87C109.139 86.28 110.032 85.92 111.446 85.92C112.859 85.92 113.806 86.1067 114.286 86.48C114.792 86.8267 115.086 87.3467 115.166 88.04C116.179 86.6533 117.766 85.96 119.926 85.96C122.112 85.96 124.179 86.9867 126.126 89.04C128.072 91.0933 129.046 93.48 129.046 96.2C129.046 98.92 128.072 101.307 126.126 103.36C124.206 105.413 122.152 106.44 119.966 106.44C117.779 106.44 116.192 105.827 115.206 104.6V112.68C115.206 113.293 115.179 113.747 115.126 114.04C115.099 114.333 114.979 114.667 114.766 115.04C114.579 115.44 114.246 115.72 113.766 115.88C113.286 116.04 112.632 116.12 111.806 116.12C110.979 116.12 110.312 116.04 109.806 115.88C109.326 115.72 108.979 115.453 108.766 115.08C108.579 114.707 108.459 114.373 108.406 114.08C108.379 113.787 108.366 113.333 108.366 112.72ZM116.286 93.88C115.672 94.6 115.366 95.3867 115.366 96.24C115.366 97.0933 115.672 97.88 116.286 98.6C116.926 99.2933 117.726 99.64 118.686 99.64C119.672 99.64 120.499 99.2933 121.166 98.6C121.859 97.9067 122.206 97.12 122.206 96.24C122.206 95.36 121.886 94.5733 121.246 93.88C120.606 93.16 119.766 92.8 118.726 92.8C117.712 92.8 116.899 93.16 116.286 93.88ZM131.047 96.48C131.047 93.28 132.167 90.64 134.407 88.56C136.647 86.48 139.207 85.44 142.087 85.44C144.967 85.44 147.514 86.48 149.727 88.56C151.94 90.6133 153.047 93.24 153.047 96.44C153.047 98.6533 152.474 100.627 151.327 102.36C150.18 104.067 148.78 105.333 147.127 106.16C145.5 106.96 143.807 107.36 142.047 107.36C140.287 107.36 138.58 106.933 136.927 106.08C135.274 105.2 133.874 103.92 132.727 102.24C131.607 100.533 131.047 98.6133 131.047 96.48ZM139.407 99.36C140.26 100 141.127 100.32 142.007 100.32C142.887 100.32 143.767 99.9867 144.647 99.32C145.527 98.6533 145.967 97.6667 145.967 96.36C145.967 95.0533 145.554 94.08 144.727 93.44C143.9 92.8 143.007 92.48 142.047 92.48C141.087 92.48 140.194 92.8133 139.367 93.48C138.54 94.1467 138.127 95.1333 138.127 96.44C138.127 97.72 138.554 98.6933 139.407 99.36ZM169.951 86.16C170.458 86.32 170.871 86.6 171.191 87C171.538 87.3733 171.711 87.9867 171.711 88.84C171.711 89.6933 171.458 90.6267 170.951 91.64C170.445 92.6533 169.711 93.16 168.751 93.16C168.271 93.16 167.805 93.0533 167.351 92.84C166.925 92.6267 166.351 92.52 165.631 92.52C164.911 92.52 164.231 92.7733 163.591 93.28C162.978 93.7867 162.671 94.4 162.671 95.12V103.52C162.671 104.133 162.645 104.6 162.591 104.92C162.565 105.213 162.445 105.56 162.231 105.96C161.831 106.653 160.791 107 159.111 107C157.831 107 156.911 106.773 156.351 106.32C155.925 105.947 155.685 105.373 155.631 104.6C155.631 104.333 155.631 103.947 155.631 103.44V89.4C155.631 88.7867 155.645 88.3333 155.671 88.04C155.725 87.72 155.845 87.3733 156.031 87C156.405 86.28 157.445 85.92 159.151 85.92C160.751 85.92 161.751 86.2267 162.151 86.84C162.445 87.2667 162.591 87.7067 162.591 88.16C162.725 87.9733 162.911 87.7467 163.151 87.48C163.418 87.2133 163.965 86.8533 164.791 86.4C165.618 85.9467 166.338 85.72 166.951 85.72C167.591 85.72 168.125 85.76 168.551 85.84C168.978 85.8933 169.445 86 169.951 86.16ZM204.91 91.28C206.483 93.1467 207.27 95.24 207.27 97.56C207.216 100.227 206.296 102.467 204.51 104.28C202.75 106.067 200.603 106.96 198.07 106.96H187.55C185.683 106.96 184.59 106.453 184.27 105.44C184.11 104.987 184.03 104.293 184.03 103.36V81.16C184.03 80.52 184.043 80.0533 184.07 79.76C184.123 79.4667 184.256 79.12 184.47 78.72C184.843 78 185.883 77.64 187.59 77.64H197.67C200.123 77.64 202.176 78.4933 203.83 80.2C205.563 81.9333 206.43 84.0133 206.43 86.44C206.43 88.2 205.923 89.8133 204.91 91.28ZM200.19 97.16C200.19 96.52 200.11 96.0133 199.95 95.64C199.816 95.2667 199.576 95 199.23 94.84C198.696 94.6267 197.95 94.52 196.99 94.52C196.03 94.52 195.31 94.3333 194.83 93.96C194.35 93.5867 194.11 92.8267 194.11 91.68C194.11 90.5067 194.35 89.7333 194.83 89.36C195.336 88.9867 196.163 88.8 197.31 88.8C198.376 88.8 199.016 88.52 199.23 87.96C199.31 87.6667 199.35 87.1867 199.35 86.52C199.35 85.8533 199.123 85.3867 198.67 85.12C198.243 84.8533 197.59 84.72 196.71 84.72H191.11V99.88H197.67C199.35 99.88 200.19 98.9733 200.19 97.16ZM209.889 79.52C209.889 78.9067 209.902 78.4533 209.929 78.16C209.982 77.84 210.102 77.48 210.289 77.08C210.662 76.36 211.702 76 213.409 76C215.036 76 216.049 76.36 216.449 77.08C216.662 77.48 216.782 77.84 216.809 78.16C216.862 78.48 216.889 78.9467 216.889 79.56V98.08C216.889 99.04 216.969 99.6533 217.129 99.92C217.289 100.16 217.636 100.28 218.169 100.28C218.729 100.28 219.102 100.307 219.289 100.36C219.476 100.387 219.702 100.493 219.969 100.68C220.502 101.027 220.769 101.973 220.769 103.52C220.769 105.2 220.502 106.227 219.969 106.6C219.276 107.08 217.622 107.16 215.009 106.84C212.956 106.573 211.622 105.893 211.009 104.8C210.262 103.493 209.889 101.413 209.889 98.56V79.52ZM222.375 96.48C222.375 93.28 223.495 90.64 225.735 88.56C227.975 86.48 230.535 85.44 233.415 85.44C236.295 85.44 238.842 86.48 241.055 88.56C243.268 90.6133 244.375 93.24 244.375 96.44C244.375 98.6533 243.802 100.627 242.655 102.36C241.508 104.067 240.108 105.333 238.455 106.16C236.828 106.96 235.135 107.36 233.375 107.36C231.615 107.36 229.908 106.933 228.255 106.08C226.602 105.2 225.202 103.92 224.055 102.24C222.935 100.533 222.375 98.6133 222.375 96.48ZM230.735 99.36C231.588 100 232.455 100.32 233.335 100.32C234.215 100.32 235.095 99.9867 235.975 99.32C236.855 98.6533 237.295 97.6667 237.295 96.36C237.295 95.0533 236.882 94.08 236.055 93.44C235.228 92.8 234.335 92.48 233.375 92.48C232.415 92.48 231.522 92.8133 230.695 93.48C229.868 94.1467 229.455 95.1333 229.455 96.44C229.455 97.72 229.882 98.6933 230.735 99.36ZM260.319 104.36C259.306 105.693 257.693 106.36 255.479 106.36C253.266 106.36 251.186 105.347 249.239 103.32C247.319 101.267 246.359 98.88 246.359 96.16C246.359 93.44 247.333 91.0533 249.279 89C251.226 86.9467 253.359 85.92 255.679 85.92C256.586 85.92 257.413 86.0933 258.159 86.44C258.906 86.76 259.413 87.0667 259.679 87.36C259.973 87.6267 260.199 87.88 260.359 88.12C260.439 87.3733 260.706 86.8133 261.159 86.44C261.639 86.04 262.399 85.84 263.439 85.84C264.479 85.84 265.239 85.92 265.719 86.08C266.199 86.24 266.533 86.52 266.719 86.92C266.933 87.2933 267.053 87.6267 267.079 87.92C267.133 88.2133 267.159 88.6667 267.159 89.28V105.84C267.159 108.907 266.093 111.373 263.959 113.24C261.826 115.133 259.426 116.08 256.759 116.08C254.733 116.08 252.799 115.587 250.959 114.6C249.119 113.613 248.199 112.72 248.199 111.92C248.199 110.88 248.599 109.96 249.399 109.16C249.906 108.6 250.293 108.213 250.559 108C250.853 107.787 251.186 107.68 251.559 107.68C251.933 107.68 252.319 107.84 252.719 108.16C253.999 109.147 255.386 109.64 256.879 109.64C257.893 109.64 258.719 109.24 259.359 108.44C259.999 107.64 260.319 106.68 260.319 105.56V104.36ZM253.199 96.2C253.199 97.0533 253.533 97.8267 254.199 98.52C254.893 99.2133 255.719 99.56 256.679 99.56C257.666 99.56 258.479 99.2133 259.119 98.52C259.759 97.8 260.079 97.0267 260.079 96.2C260.079 95.3467 259.773 94.56 259.159 93.84C258.546 93.0933 257.719 92.72 256.679 92.72C255.639 92.72 254.799 93.08 254.159 93.8C253.519 94.52 253.199 95.32 253.199 96.2ZM499.383 78.12C500.957 78.8933 501.743 79.7467 501.743 80.68C501.743 81.1067 501.543 81.7467 501.143 82.6L490.103 105C489.81 105.587 489.357 106.067 488.743 106.44C488.157 106.787 487.543 106.96 486.903 106.96H486.503C485.837 106.96 485.197 106.787 484.583 106.44C483.997 106.067 483.557 105.587 483.263 105L472.223 82.6C471.823 81.7467 471.623 81.1067 471.623 80.68C471.623 79.7467 472.41 78.8933 473.983 78.12C474.863 77.6667 475.53 77.44 475.983 77.44C476.463 77.44 476.823 77.4933 477.063 77.6C477.303 77.7067 477.53 77.8933 477.743 78.16C477.983 78.48 478.197 78.84 478.383 79.24C478.597 79.6133 479.117 80.72 479.943 82.56C480.77 84.3733 481.65 86.3067 482.583 88.36C483.543 90.4133 484.437 92.36 485.263 94.2C486.117 96.0133 486.597 97.0267 486.703 97.24L494.703 79.72C494.917 79.2133 495.103 78.8133 495.263 78.52C495.743 77.8 496.33 77.44 497.023 77.44C497.717 77.44 498.503 77.6667 499.383 78.12ZM524.832 91.28C526.405 93.1467 527.192 95.24 527.192 97.56C527.138 100.227 526.218 102.467 524.432 104.28C522.672 106.067 520.525 106.96 517.992 106.96H507.472C505.605 106.96 504.512 106.453 504.192 105.44C504.032 104.987 503.952 104.293 503.952 103.36V81.16C503.952 80.52 503.965 80.0533 503.992 79.76C504.045 79.4667 504.178 79.12 504.392 78.72C504.765 78 505.805 77.64 507.512 77.64H517.592C520.045 77.64 522.098 78.4933 523.752 80.2C525.485 81.9333 526.352 84.0133 526.352 86.44C526.352 88.2 525.845 89.8133 524.832 91.28ZM520.112 97.16C520.112 96.52 520.032 96.0133 519.872 95.64C519.738 95.2667 519.498 95 519.152 94.84C518.618 94.6267 517.872 94.52 516.912 94.52C515.952 94.52 515.232 94.3333 514.752 93.96C514.272 93.5867 514.032 92.8267 514.032 91.68C514.032 90.5067 514.272 89.7333 514.752 89.36C515.258 88.9867 516.085 88.8 517.232 88.8C518.298 88.8 518.938 88.52 519.152 87.96C519.232 87.6667 519.272 87.1867 519.272 86.52C519.272 85.8533 519.045 85.3867 518.592 85.12C518.165 84.8533 517.512 84.72 516.632 84.72H511.032V99.88H517.592C519.272 99.88 520.112 98.9733 520.112 97.16Z" fill="#FF9900"/>
<path d="M299.395 78.92C299.662 78.44 300.048 78.12 300.555 77.96C301.062 77.8 301.688 77.72 302.435 77.72C303.208 77.72 303.822 77.7867 304.275 77.92C304.755 78.0533 305.102 78.2133 305.315 78.4C305.555 78.5867 305.728 78.8667 305.835 79.24C305.995 79.6667 306.075 80.3467 306.075 81.28V103.48C306.075 104.12 306.048 104.587 305.995 104.88C305.968 105.173 305.848 105.52 305.635 105.92C305.262 106.64 304.222 107 302.515 107C301.475 107 300.755 106.92 300.355 106.76C299.955 106.6 299.622 106.347 299.355 106C293.355 98 289.408 92.7733 287.515 90.32V103.48C287.515 104.12 287.488 104.587 287.435 104.88C287.408 105.173 287.288 105.52 287.075 105.92C286.702 106.64 285.662 107 283.955 107C282.302 107 281.288 106.64 280.915 105.92C280.702 105.52 280.568 105.16 280.515 104.84C280.488 104.52 280.475 104.053 280.475 103.44V81.12C280.475 80.1067 280.595 79.3733 280.835 78.92C281.102 78.44 281.488 78.12 281.995 77.96C282.502 77.8 283.155 77.72 283.955 77.72C284.755 77.72 285.382 77.8 285.835 77.96C286.315 78.0933 286.648 78.2533 286.835 78.44C286.942 78.52 287.248 78.8667 287.755 79.48C293.382 87.1333 297.142 92.1867 299.035 94.64V81.12C299.035 80.1067 299.155 79.3733 299.395 78.92ZM308.664 96.48C308.664 93.28 309.784 90.64 312.024 88.56C314.264 86.48 316.824 85.44 319.704 85.44C322.584 85.44 325.131 86.48 327.344 88.56C329.557 90.6133 330.664 93.24 330.664 96.44C330.664 98.6533 330.091 100.627 328.944 102.36C327.797 104.067 326.397 105.333 324.744 106.16C323.117 106.96 321.424 107.36 319.664 107.36C317.904 107.36 316.197 106.933 314.544 106.08C312.891 105.2 311.491 103.92 310.344 102.24C309.224 100.533 308.664 98.6133 308.664 96.48ZM317.024 99.36C317.877 100 318.744 100.32 319.624 100.32C320.504 100.32 321.384 99.9867 322.264 99.32C323.144 98.6533 323.584 97.6667 323.584 96.36C323.584 95.0533 323.171 94.08 322.344 93.44C321.517 92.8 320.624 92.48 319.664 92.48C318.704 92.48 317.811 92.8133 316.984 93.48C316.157 94.1467 315.744 95.1333 315.744 96.44C315.744 97.72 316.171 98.6933 317.024 99.36ZM344.903 93L342.303 92.84V98.36C342.303 99.08 342.409 99.6 342.623 99.92C342.863 100.24 343.289 100.4 343.903 100.4C344.543 100.4 345.023 100.427 345.343 100.48C345.689 100.507 346.049 100.627 346.423 100.84C347.036 101.187 347.343 102.08 347.343 103.52C347.343 105.2 346.969 106.227 346.223 106.6C345.823 106.787 345.463 106.907 345.143 106.96C344.849 106.987 344.409 107 343.823 107C341.049 107 338.943 106.373 337.503 105.12C336.063 103.867 335.343 101.747 335.343 98.76V92.84C334.836 92.92 334.289 92.96 333.702 92.96C333.116 92.96 332.623 92.7333 332.223 92.28C331.849 91.8267 331.663 91.0533 331.663 89.96C331.663 88.8667 331.729 88.08 331.863 87.6C331.996 87.0933 332.183 86.7333 332.423 86.52C332.849 86.1733 333.383 86 334.023 86L335.343 86.16V82.04C335.343 81.4267 335.356 80.9733 335.383 80.68C335.436 80.3867 335.569 80.0667 335.783 79.72C336.129 79.0533 337.156 78.72 338.863 78.72C340.676 78.72 341.756 79.2133 342.103 80.2C342.236 80.6267 342.303 81.3067 342.303 82.24V86.16C343.476 86.0533 344.356 86 344.943 86C345.556 86 346.009 86.0267 346.303 86.08C346.623 86.1067 346.983 86.2267 347.383 86.44C348.076 86.7867 348.423 87.8133 348.423 89.52C348.423 91.2 348.063 92.2267 347.343 92.6C346.943 92.7867 346.583 92.9067 346.263 92.96C345.969 92.9867 345.516 93 344.903 93ZM350.631 89.44C350.631 88.8267 350.645 88.3733 350.671 88.08C350.725 87.76 350.845 87.4 351.031 87C351.405 86.3067 352.445 85.96 354.151 85.96C355.431 85.96 356.338 86.1867 356.871 86.64C357.325 87.0133 357.565 87.5867 357.591 88.36C357.618 88.6267 357.631 89.0133 357.631 89.52V103.52C357.631 104.133 357.605 104.6 357.551 104.92C357.525 105.213 357.405 105.56 357.191 105.96C356.845 106.653 355.818 107 354.111 107C352.431 107 351.405 106.64 351.031 105.92C350.845 105.52 350.725 105.173 350.671 104.88C350.645 104.587 350.631 104.12 350.631 103.48V89.44ZM357.191 82.04C357.005 82.4133 356.658 82.68 356.151 82.84C355.645 83 354.965 83.08 354.111 83.08C353.285 83.08 352.618 83 352.111 82.84C351.605 82.68 351.245 82.4 351.031 82C350.845 81.6 350.725 81.2533 350.671 80.96C350.645 80.64 350.631 80.1733 350.631 79.56C350.631 78.9467 350.645 78.4933 350.671 78.2C350.725 77.88 350.845 77.5333 351.031 77.16C351.405 76.44 352.445 76.08 354.151 76.08C355.831 76.08 356.845 76.44 357.191 77.16C357.405 77.56 357.525 77.92 357.551 78.24C357.605 78.5333 357.631 78.9867 357.631 79.6C357.631 80.2133 357.605 80.68 357.551 81C357.525 81.2933 357.405 81.64 357.191 82.04ZM367.427 96.48C367.427 97.6 367.8 98.48 368.547 99.12C369.293 99.7333 370.08 100.04 370.907 100.04C371.76 100.04 372.547 99.8 373.267 99.32C374.013 98.8133 374.613 98.56 375.067 98.56C375.867 98.56 376.84 99.2667 377.987 100.68C378.6 101.453 378.907 102.147 378.907 102.76C378.907 103.773 378.173 104.72 376.707 105.6C375.187 106.667 373.32 107.2 371.107 107.2C368.627 107.2 366.24 106.307 363.947 104.52C362.853 103.667 361.96 102.533 361.267 101.12C360.573 99.68 360.227 98.1067 360.227 96.4C360.227 94.6667 360.573 93.1067 361.267 91.72C361.96 90.3067 362.853 89.1733 363.947 88.32C366.16 86.56 368.52 85.68 371.027 85.68C372.04 85.68 373.027 85.8267 373.987 86.12C374.947 86.3867 375.653 86.6533 376.107 86.92L376.747 87.32C377.227 87.64 377.6 87.8933 377.867 88.08C378.56 88.6133 378.907 89.2267 378.907 89.92C378.907 90.5867 378.627 91.3467 378.067 92.2C377.107 93.6667 376.187 94.4 375.307 94.4C374.8 94.4 374.08 94.1067 373.147 93.52C372.667 93.0667 371.973 92.84 371.067 92.84C370.187 92.84 369.36 93.16 368.587 93.8C367.813 94.44 367.427 95.3333 367.427 96.48ZM381.491 89.44C381.491 88.8267 381.504 88.3733 381.531 88.08C381.584 87.76 381.704 87.4 381.891 87C382.264 86.3067 383.304 85.96 385.011 85.96C386.291 85.96 387.197 86.1867 387.731 86.64C388.184 87.0133 388.424 87.5867 388.451 88.36C388.477 88.6267 388.491 89.0133 388.491 89.52V103.52C388.491 104.133 388.464 104.6 388.411 104.92C388.384 105.213 388.264 105.56 388.051 105.96C387.704 106.653 386.677 107 384.971 107C383.291 107 382.264 106.64 381.891 105.92C381.704 105.52 381.584 105.173 381.531 104.88C381.504 104.587 381.491 104.12 381.491 103.48V89.44ZM388.051 82.04C387.864 82.4133 387.517 82.68 387.011 82.84C386.504 83 385.824 83.08 384.971 83.08C384.144 83.08 383.477 83 382.971 82.84C382.464 82.68 382.104 82.4 381.891 82C381.704 81.6 381.584 81.2533 381.531 80.96C381.504 80.64 381.491 80.1733 381.491 79.56C381.491 78.9467 381.504 78.4933 381.531 78.2C381.584 77.88 381.704 77.5333 381.891 77.16C382.264 76.44 383.304 76.08 385.011 76.08C386.691 76.08 387.704 76.44 388.051 77.16C388.264 77.56 388.384 77.92 388.411 78.24C388.464 78.5333 388.491 78.9867 388.491 79.6C388.491 80.2133 388.464 80.68 388.411 81C388.384 81.2933 388.264 81.64 388.051 82.04ZM405.366 88.16C405.526 86.6667 406.579 85.92 408.526 85.92C409.566 85.92 410.339 86 410.846 86.16C411.353 86.32 411.699 86.6 411.886 87C412.099 87.4 412.219 87.76 412.246 88.08C412.299 88.3733 412.326 88.8267 412.326 89.44V103.44C412.326 104.053 412.299 104.52 412.246 104.84C412.219 105.133 412.113 105.48 411.926 105.88C411.553 106.573 410.633 106.92 409.166 106.92C407.726 106.92 406.753 106.747 406.246 106.4C405.766 106.027 405.486 105.493 405.406 104.8C404.419 106.213 402.766 106.92 400.446 106.92C398.153 106.92 396.019 105.867 394.046 103.76C392.073 101.653 391.086 99.2133 391.086 96.44C391.086 93.64 392.073 91.2 394.046 89.12C396.046 87.0133 398.233 85.96 400.606 85.96C401.513 85.96 402.339 86.12 403.086 86.44C403.833 86.76 404.353 87.0667 404.646 87.36C404.939 87.6267 405.179 87.8933 405.366 88.16ZM398.086 96.48C398.086 97.36 398.433 98.16 399.126 98.88C399.819 99.5733 400.659 99.92 401.646 99.92C402.633 99.92 403.446 99.56 404.086 98.84C404.753 98.12 405.086 97.3333 405.086 96.48C405.086 95.6 404.766 94.7867 404.126 94.04C403.513 93.2933 402.673 92.92 401.606 92.92C400.566 92.92 399.713 93.2933 399.046 94.04C398.406 94.7867 398.086 95.6 398.086 96.48ZM415.674 105.12C415.167 104.8 414.914 104.293 414.914 103.6C414.914 102.907 415.421 101.853 416.434 100.44C416.727 99.9867 417.194 99.76 417.834 99.76C418.501 99.76 419.394 100.093 420.514 100.76C421.634 101.4 422.647 101.72 423.554 101.72C425.181 101.72 425.994 101.4 425.994 100.76C425.994 100.253 425.101 99.88 423.314 99.64C421.634 99.4 419.967 98.7733 418.314 97.76C417.541 97.28 416.901 96.5333 416.394 95.52C415.887 94.48 415.634 93.2533 415.634 91.84C415.634 87.6267 418.527 85.52 424.314 85.52C426.207 85.52 428.154 85.9733 430.154 86.88C431.087 87.3067 431.554 87.84 431.554 88.48C431.554 89.12 431.261 89.9067 430.674 90.84C430.087 91.7733 429.487 92.24 428.874 92.24C428.554 92.24 427.954 92.04 427.074 91.64C426.221 91.24 425.287 91.04 424.274 91.04C422.701 91.04 421.914 91.3333 421.914 91.92C421.914 92.72 422.821 93.24 424.634 93.48C426.394 93.6667 428.101 94.1733 429.754 95C430.527 95.3733 431.167 96.0267 431.674 96.96C432.207 97.8667 432.474 99.0133 432.474 100.4C432.474 101.787 432.207 102.973 431.674 103.96C431.167 104.92 430.447 105.64 429.514 106.12C427.807 106.947 425.661 107.36 423.074 107.36C420.514 107.36 418.047 106.613 415.674 105.12ZM457.002 101.44H447.482C445.988 101.44 445.095 100.987 444.802 100.08C444.668 99.6 444.602 98.9867 444.602 98.24C444.602 97.4933 444.682 96.8933 444.842 96.44C445.002 95.9867 445.255 95.6667 445.602 95.48C446.082 95.24 446.722 95.12 447.522 95.12H457.042C458.535 95.12 459.415 95.56 459.682 96.44C459.842 96.92 459.922 97.5333 459.922 98.28C459.922 99.0267 459.842 99.64 459.682 100.12C459.548 100.573 459.322 100.893 459.002 101.08C458.522 101.32 457.855 101.44 457.002 101.44ZM548.731 78.92C548.998 78.44 549.384 78.12 549.891 77.96C550.398 77.8 551.024 77.72 551.771 77.72C552.544 77.72 553.158 77.7867 553.611 77.92C554.091 78.0533 554.438 78.2133 554.651 78.4C554.891 78.5867 555.064 78.8667 555.171 79.24C555.331 79.6667 555.411 80.3467 555.411 81.28V103.48C555.411 104.12 555.384 104.587 555.331 104.88C555.304 105.173 555.184 105.52 554.971 105.92C554.598 106.64 553.558 107 551.851 107C550.811 107 550.091 106.92 549.691 106.76C549.291 106.6 548.958 106.347 548.691 106C542.691 98 538.744 92.7733 536.851 90.32V103.48C536.851 104.12 536.824 104.587 536.771 104.88C536.744 105.173 536.624 105.52 536.411 105.92C536.038 106.64 534.998 107 533.291 107C531.638 107 530.624 106.64 530.251 105.92C530.038 105.52 529.904 105.16 529.851 104.84C529.824 104.52 529.811 104.053 529.811 103.44V81.12C529.811 80.1067 529.931 79.3733 530.171 78.92C530.438 78.44 530.824 78.12 531.331 77.96C531.838 77.8 532.491 77.72 533.291 77.72C534.091 77.72 534.718 77.8 535.171 77.96C535.651 78.0933 535.984 78.2533 536.171 78.44C536.278 78.52 536.584 78.8667 537.091 79.48C542.718 87.1333 546.478 92.1867 548.371 94.64V81.12C548.371 80.1067 548.491 79.3733 548.731 78.92Z" fill="#AFAFAF"/>
</svg>
