<svg width="55" height="55" viewBox="0 0 55 55" fill="none" xmlns="http://www.w3.org/2000/svg">
<path d="M27.5 0.859375C12.7832 0.859375 0.859375 12.7832 0.859375 27.5C0.859375 42.2168 12.7832 54.1406 27.5 54.1406C42.2168 54.1406 54.1406 42.2168 54.1406 27.5C54.1406 12.7832 42.2168 0.859375 27.5 0.859375ZM27.5 11.1719C32.7207 11.1719 36.9531 15.4043 36.9531 20.625C36.9531 25.8457 32.7207 30.0781 27.5 30.0781C22.2793 30.0781 18.0469 25.8457 18.0469 20.625C18.0469 15.4043 22.2793 11.1719 27.5 11.1719ZM27.5 48.125C21.1943 48.125 15.5439 45.2676 11.7627 40.7988C13.7822 36.9961 17.7353 34.375 22.3437 34.375C22.6016 34.375 22.8594 34.418 23.1064 34.4932C24.5029 34.9443 25.9639 35.2344 27.5 35.2344C29.0361 35.2344 30.5078 34.9443 31.8936 34.4932C32.1406 34.418 32.3984 34.375 32.6562 34.375C37.2646 34.375 41.2178 36.9961 43.2373 40.7988C39.4561 45.2676 33.8057 48.125 27.5 48.125Z" fill="#FF9900"/>
</svg>
